<svg width="60" height="60" viewBox="0 0 60 60" fill="none" xmlns="http://www.w3.org/2000/svg">
<g clip-path="url(#clip0_1603_2)">
<rect width="60" height="60" fill="white"/>
<path d="M26.0625 61H7.21023V-0.0909109H26.8977C32.8239 -0.0909109 37.8949 1.1321 42.1108 3.57812C46.3267 6.00426 49.5582 9.49432 51.8054 14.0483C54.0526 18.5824 55.1761 24.0114 55.1761 30.3352C55.1761 36.6989 54.0426 42.1776 51.7756 46.7713C49.5085 51.3452 46.2074 54.8651 41.8722 57.331C37.5369 59.777 32.267 61 26.0625 61ZM14.608 54.4375H25.5852C30.6364 54.4375 34.8224 53.4631 38.1435 51.5142C41.4645 49.5653 43.9403 46.7912 45.571 43.1918C47.2017 39.5923 48.017 35.3068 48.017 30.3352C48.017 25.4034 47.2116 21.1577 45.6009 17.598C43.9901 14.0185 41.5838 11.2741 38.3821 9.36505C35.1804 7.43608 31.1932 6.47159 26.4205 6.47159H14.608V54.4375Z" fill="black"/>
<path d="M7.21023 61H6.21023V62H7.21023V61ZM7.21023 -0.0909109V-1.09091H6.21023V-0.0909109H7.21023ZM42.1108 3.57812L41.609 4.44309L41.612 4.44485L42.1108 3.57812ZM51.8054 14.0483L50.9086 14.4908L50.9094 14.4924L51.8054 14.0483ZM51.7756 46.7713L52.6716 47.2154L52.6723 47.2139L51.7756 46.7713ZM41.8722 57.331L42.3636 58.2019L42.3666 58.2002L41.8722 57.331ZM14.608 54.4375H13.608V55.4375H14.608V54.4375ZM45.6009 17.598L44.6889 18.0084L44.6898 18.0103L45.6009 17.598ZM38.3821 9.36505L37.866 10.2216L37.87 10.224L38.3821 9.36505ZM14.608 6.47159V5.47159H13.608V6.47159H14.608ZM26.0625 60H7.21023V62H26.0625V60ZM8.21023 61V-0.0909109H6.21023V61H8.21023ZM7.21023 0.909089H26.8977V-1.09091H7.21023V0.909089ZM26.8977 0.909089C32.6855 0.909089 37.5753 2.10279 41.609 4.44309L42.6126 2.71316C38.2145 0.161415 32.9622 -1.09091 26.8977 -1.09091V0.909089ZM41.612 4.44485C45.6483 6.76764 48.7451 10.1063 50.9086 14.4908L52.7022 13.6058C50.3714 8.88236 47.0051 5.24088 42.6096 2.7114L41.612 4.44485ZM50.9094 14.4924C53.0732 18.8583 54.1761 24.1279 54.1761 30.3352H56.1761C56.1761 23.8949 55.0319 18.3065 52.7014 13.6042L50.9094 14.4924ZM54.1761 30.3352C54.1761 36.5817 53.0635 41.9019 50.8788 46.3288L52.6723 47.2139C55.0217 42.4532 56.1761 36.816 56.1761 30.3352H54.1761ZM50.8796 46.3272C48.6988 50.727 45.5355 54.0968 41.3777 56.4617L42.3666 58.2002C46.8793 55.6333 50.3182 51.9634 52.6716 47.2154L50.8796 46.3272ZM41.3808 56.46C37.2282 58.803 32.1368 60 26.0625 60V62C32.3973 62 37.8457 60.751 42.3636 58.2019L41.3808 56.46ZM14.608 55.4375H25.5852V53.4375H14.608V55.4375ZM25.5852 55.4375C30.7603 55.4375 35.1344 54.4395 38.6496 52.3767L37.6373 50.6517C34.5105 52.4867 30.5124 53.4375 25.5852 53.4375V55.4375ZM38.6496 52.3767C42.1537 50.3204 44.7684 47.3867 46.4819 43.6044L44.6601 42.7791C43.1123 46.1957 40.7753 48.8103 37.6373 50.6517L38.6496 52.3767ZM46.4819 43.6044C48.1844 39.8464 49.017 35.4136 49.017 30.3352H47.017C47.017 35.2001 46.219 39.3382 44.6601 42.7791L46.4819 43.6044ZM49.017 30.3352C49.017 25.2973 48.1946 20.9042 46.5119 17.1857L44.6898 18.0103C46.2287 21.4111 47.017 25.5095 47.017 30.3352H49.017ZM46.5128 17.1876C44.8226 13.4316 42.2817 10.526 38.8942 8.50615L37.87 10.224C40.8859 12.0223 43.1575 14.6053 44.6889 18.0084L46.5128 17.1876ZM38.8982 8.5085C35.5031 6.46301 31.3255 5.47159 26.4205 5.47159V7.47159C31.0609 7.47159 34.8577 8.40914 37.866 10.2216L38.8982 8.5085ZM26.4205 5.47159H14.608V7.47159H26.4205V5.47159ZM13.608 6.47159V54.4375H15.608V6.47159H13.608Z" fill="#00FFEF"/>
<path d="M56.951 30.4545C56.951 36.8977 55.7876 42.4659 53.4609 47.1591C51.1342 51.8523 47.9425 55.4716 43.8857 58.017C39.8288 60.5625 35.1953 61.8352 29.9851 61.8352C24.7749 61.8352 20.1413 60.5625 16.0845 58.017C12.0277 55.4716 8.83594 51.8523 6.50923 47.1591C4.18253 42.4659 3.01918 36.8977 3.01918 30.4545C3.01918 24.0114 4.18253 18.4432 6.50923 13.75C8.83594 9.05682 12.0277 5.4375 16.0845 2.89204C20.1413 0.346589 24.7749 -0.926139 29.9851 -0.926139C35.1953 -0.926139 39.8288 0.346589 43.8857 2.89204C47.9425 5.4375 51.1342 9.05682 53.4609 13.75C55.7876 18.4432 56.951 24.0114 56.951 30.4545ZM49.7919 30.4545C49.7919 25.1648 48.907 20.7003 47.1371 17.0611C45.3871 13.4219 43.0107 10.6676 40.0078 8.79829C37.0249 6.92898 33.684 5.99432 29.9851 5.99432C26.2862 5.99432 22.9354 6.92898 19.9325 8.79829C16.9496 10.6676 14.5732 13.4219 12.8033 17.0611C11.0533 20.7003 10.1783 25.1648 10.1783 30.4545C10.1783 35.7443 11.0533 40.2088 12.8033 43.848C14.5732 47.4872 16.9496 50.2415 19.9325 52.1108C22.9354 53.9801 26.2862 54.9148 29.9851 54.9148C33.684 54.9148 37.0249 53.9801 40.0078 52.1108C43.0107 50.2415 45.3871 47.4872 47.1371 43.848C48.907 40.2088 49.7919 35.7443 49.7919 30.4545Z" fill="black"/>
<path d="M53.4609 47.1591L52.565 46.7149L52.565 46.7149L53.4609 47.1591ZM43.8857 58.017L44.4171 58.8641L44.4171 58.8641L43.8857 58.017ZM16.0845 58.017L15.553 58.8641L15.553 58.8641L16.0845 58.017ZM6.50923 47.1591L7.40517 46.7149L7.40517 46.7149L6.50923 47.1591ZM43.8857 2.89204L44.4171 2.04498L44.4171 2.04498L43.8857 2.89204ZM53.4609 13.75L52.565 14.1942L52.565 14.1942L53.4609 13.75ZM47.1371 17.0611L46.2359 17.4945L46.2378 17.4984L47.1371 17.0611ZM40.0078 8.79829L39.4768 9.64566L39.4793 9.64724L40.0078 8.79829ZM19.9325 8.79829L19.404 7.94935L19.4015 7.95093L19.9325 8.79829ZM12.8033 17.0611L11.904 16.6237L11.9021 16.6277L12.8033 17.0611ZM12.8033 43.848L11.902 44.2814L11.904 44.2854L12.8033 43.848ZM19.9325 52.1108L19.4015 52.9582L19.404 52.9597L19.9325 52.1108ZM40.0078 52.1108L39.4793 51.2618L39.4768 51.2634L40.0078 52.1108ZM47.1371 43.848L46.2378 43.4106L46.2359 43.4146L47.1371 43.848ZM55.951 30.4545C55.951 36.7784 54.8093 42.1879 52.565 46.7149L54.3569 47.6033C56.766 42.7439 57.951 37.017 57.951 30.4545H55.951ZM52.565 46.7149C50.3123 51.2588 47.2402 54.7317 43.3542 57.17L44.4171 58.8641C48.6448 56.2115 51.9561 52.4458 54.3569 47.6033L52.565 46.7149ZM43.3542 57.17C39.4705 59.6068 35.0245 60.8352 29.9851 60.8352V62.8352C35.3662 62.8352 40.1871 61.5182 44.4171 58.8641L43.3542 57.17ZM29.9851 60.8352C24.9457 60.8352 20.4996 59.6068 16.616 57.17L15.553 58.8641C19.783 61.5182 24.604 62.8352 29.9851 62.8352V60.8352ZM16.616 57.17C12.73 54.7317 9.65785 51.2588 7.40517 46.7149L5.61329 47.6033C8.01402 52.4458 11.3254 56.2115 15.553 58.8641L16.616 57.17ZM7.40517 46.7149C5.16085 42.1879 4.01918 36.7784 4.01918 30.4545H2.01918C2.01918 37.017 3.20421 42.7439 5.61329 47.6033L7.40517 46.7149ZM4.01918 30.4545C4.01918 24.1307 5.16085 18.7212 7.40517 14.1942L5.61329 13.3058C3.20421 18.1652 2.01918 23.8921 2.01918 30.4545H4.01918ZM7.40517 14.1942C9.65785 9.65031 12.73 6.17737 16.616 3.73911L15.553 2.04498C11.3254 4.69763 8.01402 8.46333 5.61329 13.3058L7.40517 14.1942ZM16.616 3.73911C20.4996 1.30233 24.9457 0.0738614 29.9851 0.0738614V-1.92614C24.604 -1.92614 19.783 -0.609149 15.553 2.04498L16.616 3.73911ZM29.9851 0.0738614C35.0245 0.0738614 39.4705 1.30233 43.3542 3.73911L44.4171 2.04498C40.1871 -0.609149 35.3662 -1.92614 29.9851 -1.92614V0.0738614ZM43.3542 3.73911C47.2402 6.17737 50.3123 9.65031 52.565 14.1942L54.3569 13.3058C51.9561 8.46333 48.6448 4.69763 44.4171 2.04498L43.3542 3.73911ZM52.565 14.1942C54.8093 18.7212 55.951 24.1307 55.951 30.4545H57.951C57.951 23.8921 56.766 18.1652 54.3569 13.3058L52.565 14.1942ZM50.7919 30.4545C50.7919 25.058 49.8896 20.4344 48.0364 16.6237L46.2378 17.4984C47.9243 20.9662 48.7919 25.2716 48.7919 30.4545H50.7919ZM48.0383 16.6277C46.218 12.8423 43.7222 9.93264 40.5363 7.94935L39.4793 9.64724C42.2991 11.4026 44.5562 14.0015 46.2359 17.4945L48.0383 16.6277ZM40.5388 7.95093C37.3885 5.9767 33.8618 4.99432 29.9851 4.99432V6.99432C33.5061 6.99432 36.6613 7.88125 39.4768 9.64566L40.5388 7.95093ZM29.9851 4.99432C26.1084 4.99432 22.5729 5.97668 19.404 7.94935L20.461 9.64724C23.2978 7.88128 26.4641 6.99432 29.9851 6.99432V4.99432ZM19.4015 7.95093C16.2372 9.9339 13.7433 12.8418 11.904 16.6237L13.7026 17.4984C15.403 14.002 17.6619 11.4013 20.4635 9.64566L19.4015 7.95093ZM11.9021 16.6277C10.0701 20.4373 9.17827 25.0593 9.17827 30.4545H11.1783C11.1783 25.2702 12.0364 20.9633 13.7045 17.4945L11.9021 16.6277ZM9.17827 30.4545C9.17827 35.8497 10.0701 40.4718 11.9021 44.2814L13.7045 43.4146C12.0364 39.9458 11.1783 35.6389 11.1783 30.4545H9.17827ZM11.904 44.2854C13.7433 48.0673 16.2372 50.9752 19.4015 52.9582L20.4635 51.2634C17.6619 49.5078 15.403 46.9071 13.7026 43.4107L11.904 44.2854ZM19.404 52.9597C22.5729 54.9324 26.1084 55.9148 29.9851 55.9148V53.9148C26.4641 53.9148 23.2978 53.0278 20.461 51.2619L19.404 52.9597ZM29.9851 55.9148C33.8618 55.9148 37.3885 54.9324 40.5388 52.9582L39.4768 51.2634C36.6613 53.0278 33.5061 53.9148 29.9851 53.9148V55.9148ZM40.5363 52.9597C43.7222 50.9765 46.218 48.0668 48.0383 44.2814L46.2359 43.4146C44.5562 46.9076 42.2991 49.5065 39.4793 51.2619L40.5363 52.9597ZM48.0364 44.2854C49.8896 40.4747 50.7919 35.8511 50.7919 30.4545H48.7919C48.7919 35.6375 47.9243 39.9429 46.2378 43.4107L48.0364 44.2854Z" fill="#00FFEF"/>
<path d="M7.10955 6.47159V-0.0909109H52.9277V6.47159H33.7175V61H26.3198V6.47159H7.10955Z" fill="black"/>
<path d="M7.10955 6.47159H6.10955V7.47159H7.10955V6.47159ZM7.10955 -0.0909109V-1.09091H6.10955V-0.0909109H7.10955ZM52.9277 -0.0909109H53.9277V-1.09091H52.9277V-0.0909109ZM52.9277 6.47159V7.47159H53.9277V6.47159H52.9277ZM33.7175 6.47159V5.47159H32.7175V6.47159H33.7175ZM33.7175 61V62H34.7175V61H33.7175ZM26.3198 61H25.3198V62H26.3198V61ZM26.3198 6.47159H27.3198V5.47159H26.3198V6.47159ZM8.10955 6.47159V-0.0909109H6.10955V6.47159H8.10955ZM7.10955 0.909089H52.9277V-1.09091H7.10955V0.909089ZM51.9277 -0.0909109V6.47159H53.9277V-0.0909109H51.9277ZM52.9277 5.47159H33.7175V7.47159H52.9277V5.47159ZM32.7175 6.47159V61H34.7175V6.47159H32.7175ZM33.7175 60H26.3198V62H33.7175V60ZM27.3198 61V6.47159H25.3198V61H27.3198ZM26.3198 5.47159H7.10955V7.47159H26.3198V5.47159Z" fill="#00FFEF"/>
</g>
<defs>
<clipPath id="clip0_1603_2">
<rect width="60" height="60" fill="white"/>
</clipPath>
</defs>
</svg>
